{"title":"Clear History 2013 BRRip XviD AC3-SuperNova","uid":9347333,"size":1470332913,"categoryP":"video","categoryS":"movies","magnet":"?xt=urn:btih:b199ba3a526e623cddbb692767b7f66a9b9d89e9&amp;dn=Clear+History+2013+BRRip+XviD+AC3-SuperNova&amp;tr=udp%3A%2F%2Ftracker.openbittorrent.com%3A80&amp;tr=udp%3A%2F%2Fopen.demonii.com%3A1337&amp;tr=udp%3A%2F%2Ftracker.coppersurfer.tk%3A6969&amp;tr=udp%3A%2F%2Fexodus.desync.com%3A6969","seeders":0,"leechers":1,"uploader":"7","files":6,"time":1387060479,"description":"Clear History 2013 BRRip XviD AC3-SuperNova\n============================\n\nA disgraced former marketing executive plots revenge against his former boss, who made billions from the electric car company they started.  \n\n============\nGenre.....:  Comedy\n\nActors....:  Larry David, Bill Hader, Philip Baker Hall\n\nLanguage..: English\n\nimdb......: http://www.imdb.com/title/tt2279864/\n\n\n==========\n     Format : AVI\n     Format/Info : Audio Video Interleave\n     File size : 1.37 GiB\n     Duration : 1h 40mn\n     Overall bit rate : 1 958 Kbps\n     Writing application : VirtualDubMod 1.5.10.3 | www.virtualdub-fr.org || (build 2550/release)\n     Writing library : VirtualDubMod build 2550/release\n  Video #0\n     ID : 0\n     Format : MPEG-4 Visual\n     Format profile : Advanced Simple@L5\n     Format settings, BVOP : 1\n     Format settings, QPel : No\n     Format settings, GMC : No warppoints\n     Format settings, Matrix : Default (H.263)\n     Codec ID : XVID\n     Codec ID/Hint : XviD\n     Duration : 1h 40mn\n     Bit rate : 1 500 Kbps\n     Width : 720 pixels\n     Height : 400 pixels\n     Display aspect ratio : 16:9\n     Frame rate : 23.976 fps\n     Color space : YUV\n     Chroma subsampling : 4:2:0\n     Bit depth : 8 bits\n     Scan type : Progressive\n     Compression mode : Lossy\n     Bits/(Pixel*Frame) : 0.217\n     Stream size : 1.05 GiB (77%)\n     Writing library : XviD 73\n  Audio #1\n     ID : 1\n     Format : AC-3\n     Format/Info : Audio Coding 3\n     Mode extension : CM (complete main)\n     Format settings, Endianness : Big\n     Codec ID : 2000\n     Duration : 1h 40mn\n     Bit rate mode : Constant\n     Bit rate : 448 Kbps\n     Channel(s) : 6 channels\n     Channel positions : Front: L C R, Side: L R, LFE\n     Sampling rate : 48.0 KHz\n     Bit depth : 16 bits\n     Compression mode : Lossy\n     Stream size : 321 MiB (23%)\n     Alignment : Split accross interleaves\n     Interleave, duration : 42 ms (1.00 video frame)\n     Interleave, preload duration : 500 ms\n\n=========================================\nSource.....: Clear History 2013 720p BluRay x264-IGUANA [Thanks]\nBRRip......: giangoulas ~SuperNova Team~\n\n=====================================\nAlso thanks and our respect to all enconder and uploader P2P\n=====================================\n\n &lt;a href=&quot;\nhttp://img194.imageshack.us/img194/4835/lhms.jpg&quot; rel=&quot;nofollow&quot; target=&quot;_NEW&quot;&gt;\nhttp://img194.imageshack.us/img194/4835/lhms.jpg&lt;/a&gt;\n &lt;a href=&quot;\nhttp://img600.imageshack.us/img600/4484/q9wp.jpg&quot; rel=&quot;nofollow&quot; target=&quot;_NEW&quot;&gt;\nhttp://img600.imageshack.us/img600/4484/q9wp.jpg&lt;/a&gt;\n &lt;a href=&quot;\nhttp://img36.imageshack.us/img36/1223/h6bd.jpg&quot; rel=&quot;nofollow&quot; target=&quot;_NEW&quot;&gt;\nhttp://img36.imageshack.us/img36/1223/h6bd.jpg&lt;/a&gt;\n &lt;a href=&quot;\nhttp://img24.imageshack.us/img24/8445/dpzm.jpg&quot; rel=&quot;nofollow&quot; target=&quot;_NEW&quot;&gt;\nhttp://img24.imageshack.us/img24/8445/dpzm.jpg&lt;/a&gt;","torrent":{"xt":"urn:btih:b199ba3a526e623cddbb692767b7f66a9b9d89e9","amp;dn":"Clear+History+2013+BRRip+XviD+AC3-SuperNova","amp;tr":["udp%3A%2F%2Ftracker.openbittorrent.com%3A80","udp%3A%2F%2Fopen.demonii.com%3A1337","udp%3A%2F%2Ftracker.coppersurfer.tk%3A6969","udp%3A%2F%2Fexodus.desync.com%3A6969"],"infoHash":"b199ba3a526e623cddbb692767b7f66a9b9d89e9","infoHashBuffer":{"type":"Buffer","data":[177,153,186,58,82,110,98,60,221,187,105,39,103,183,246,106,155,157,137,233]},"announce":[],"urlList":[]}}